# jazz_midi

Note On: Channel 1, Note 50, Velocity 72 main.js:16:17
Note Off: Channel 1, Note 50 main.js:19:17
Note On: Channel 1, Note 50, Velocity 89 main.js:16:17
Note Off: Channel 1, Note 50 main.js:19:17
Note On: Channel 1, Note 52, Velocity 89 main.js:16:17
Note Off: Channel 1, Note 52 main.js:19:17
Note On: Channel 1, Note 52, Velocity 95 main.js:16:17
Note Off: Channel 1, Note 52 main.js:19:17
Note On: Channel 1, Note 53, Velocity 94 main.js:16:17
Note Off: Channel 1, Note 53 main.js:19:17
Note On: Channel 1, Note 55, Velocity 48 main.js:16:17
Note On: Channel 1, Note 52, Velocity 60 main.js:16:17
Note On: Channel 1, Note 48, Velocity 48 main.js:16:17
Note Off: Channel 1, Note 52 main.js:19:17
Note Off: Channel 1, Note 48 main.js:19:17
Note Off: Channel 1, Note 55 main.js:19:17
Note On: Channel 1, Note 55, Velocity 38 main.js:16:17
Note On: Channel 1, Note 48, Velocity 50 main.js:16:17
Note On: Channel 1, Note 52, Velocity 59 main.js:16:17
Note Off: Channel 1, Note 55 main.js:19:17
Note Off: Channel 1, Note 48 main.js:19:17
Note Off: Channel 1, Note 52